<?xml version="1.0" standalone="no"?>
<!DOCTYPE svg PUBLIC "-//W3C//DTD SVG 20010904//EN"
 "http://www.w3.org/TR/2001/REC-SVG-20010904/DTD/svg10.dtd">
<svg version="1.0" xmlns="http://www.w3.org/2000/svg"
 width="270.000000pt" height="270.000000pt" viewBox="0 0 270.000000 270.000000"
 preserveAspectRatio="xMidYMid meet">
<metadata>
Created by potrace 1.11, written by Peter Selinger 2001-2013
</metadata>
<g transform="translate(0.000000,270.000000) scale(0.100000,-0.100000)"
fill="#000000" stroke="none">
<path d="M1259 2565 c-2 -2 -24 -6 -49 -8 -97 -11 -256 -51 -275 -68 -5 -5
-16 -9 -24 -9 -21 0 -183 -84 -251 -130 -207 -140 -376 -366 -461 -615 -15
-45 -30 -99 -33 -121 -4 -21 -8 -46 -11 -54 -20 -69 -28 -271 -14 -346 5 -27
14 -74 20 -104 11 -62 55 -204 72 -235 6 -11 11 -22 12 -25 1 -14 70 -140 77
-140 4 0 8 -5 8 -11 0 -24 100 -149 187 -232 54 -51 192 -156 206 -157 4 0 24
-11 45 -25 85 -56 313 -130 428 -138 28 -2 55 -7 61 -10 12 -7 200 -2 248 7
38 8 93 17 100 17 2 0 19 5 37 10 18 6 40 12 48 14 130 31 342 147 460 251 49
44 67 63 134 138 133 151 250 420 270 623 2 17 7 37 11 44 6 8 4 10 -6 4 -11
-7 -12 -6 -2 6 7 9 10 50 8 119 -3 105 -7 134 -26 220 -5 25 -11 54 -14 65
-13 66 -87 246 -128 310 -79 126 -97 149 -193 247 -167 168 -432 305 -649 334
-16 2 -37 7 -45 10 -16 7 -246 15 -251 9z m232 -219 c13 -2 42 -7 64 -11 55
-10 180 -52 237 -81 27 -13 51 -24 54 -23 4 0 10 -3 13 -8 3 -4 33 -26 65 -48
67 -45 178 -150 222 -210 16 -22 31 -42 34 -45 34 -34 126 -238 146 -322 10
-46 13 -59 20 -109 20 -145 5 -312 -42 -458 -117 -360 -449 -632 -829 -679
-123 -15 -314 0 -410 33 -72 24 -180 68 -195 79 -8 6 -31 20 -50 30 -19 11
-37 22 -40 25 -3 3 -23 19 -45 35 -22 17 -70 60 -107 98 -213 217 -316 534
-274 837 10 73 13 87 39 173 10 32 18 60 18 63 1 14 97 178 132 225 154 208
394 352 652 393 74 12 240 14 296 3z"/>
<path d="M1180 2203 c-30 -7 -64 -15 -75 -17 -56 -12 -169 -65 -245 -116 -181
-122 -317 -328 -364 -550 -22 -103 -15 -299 13 -397 77 -267 258 -472 513
-579 43 -19 78 -32 78 -30 0 2 21 -3 48 -11 93 -28 277 -28 408 1 138 30 295
119 408 232 292 292 340 745 115 1088 -136 207 -362 352 -599 386 -95 13 -229
10 -300 -7z m286 -204 c94 -16 215 -67 275 -116 182 -147 267 -316 267 -534 1
-300 -195 -554 -493 -639 -65 -19 -248 -22 -305 -6 -14 4 -36 9 -50 12 -14 3
-63 24 -110 47 -164 81 -302 255 -344 435 -35 150 -7 342 69 477 135 241 416
373 691 324z"/>
<path d="M1305 1882 c-195 -26 -349 -131 -429 -292 -105 -214 -67 -451 98
-616 102 -102 236 -157 381 -157 289 1 527 242 526 533 0 183 -96 357 -252
455 -80 51 -240 89 -324 77z m163 -224 c69 -26 145 -96 179 -166 37 -76 40
-201 6 -274 -30 -66 -96 -133 -162 -165 -48 -24 -69 -28 -141 -28 -74 0 -92 4
-143 29 -112 57 -177 156 -183 281 -10 238 221 406 444 323z"/>
<path d="M1296 1545 c-182 -63 -201 -290 -31 -377 69 -36 161 -21 223 36 72
64 84 191 25 263 -56 70 -146 102 -217 78z"/>
</g>
</svg>
